<?xml version="1.0" encoding="UTF-8" standalone="no"?>
<!DOCTYPE svg PUBLIC "-//W3C//DTD SVG 1.1//EN"
 "http://www.w3.org/Graphics/SVG/1.1/DTD/svg11.dtd">
<!-- Generated by graphviz version 5.0.0 (20220707.1540)
 -->
<!-- Title: UmlClassDiagram Pages: 1 -->
<svg width="1006pt" height="1225pt"
 viewBox="0.00 0.00 1006.12 1224.80" xmlns="http://www.w3.org/2000/svg" xmlns:xlink="http://www.w3.org/1999/xlink">
<g id="graph0" class="graph" transform="scale(1 1) rotate(0) translate(4 1220.8)">
<title>UmlClassDiagram</title>
<polygon fill="white" stroke="transparent" points="-4,4 -4,-1220.8 1002.12,-1220.8 1002.12,4 -4,4"/>
<!-- 0 -->
<g id="node1" class="node">
<title>0</title>
<polygon fill="#f2f2f2" stroke="black" points="0,-981.9 0,-1216.3 429.36,-1216.3 429.36,-981.9 0,-981.9"/>
<text text-anchor="middle" x="214.68" y="-1199.7" font-family="Times,serif" font-size="14.00">&lt;&lt;Interface&gt;&gt;</text>
<text text-anchor="middle" x="214.68" y="-1182.9" font-family="Times,serif" font-size="14.00">IERC20</text>
<text text-anchor="middle" x="214.68" y="-1166.1" font-family="Times,serif" font-size="14.00">FITsToken.sol</text>
<polyline fill="none" stroke="black" points="0,-1157.9 429.36,-1157.9 "/>
<text text-anchor="start" x="8" y="-1141.3" font-family="Times,serif" font-size="14.00">External:</text>
<text text-anchor="start" x="8" y="-1124.5" font-family="Times,serif" font-size="14.00"> &#160;&#160;&#160;&#160;totalSupply(): uint256</text>
<text text-anchor="start" x="8" y="-1107.7" font-family="Times,serif" font-size="14.00"> &#160;&#160;&#160;&#160;balanceOf(account: address): uint256</text>
<text text-anchor="start" x="8" y="-1090.9" font-family="Times,serif" font-size="14.00"> &#160;&#160;&#160;&#160;transfer(to: address, value: uint256): bool</text>
<text text-anchor="start" x="8" y="-1074.1" font-family="Times,serif" font-size="14.00"> &#160;&#160;&#160;&#160;allowance(owner: address, spender: address): uint256</text>
<text text-anchor="start" x="8" y="-1057.3" font-family="Times,serif" font-size="14.00"> &#160;&#160;&#160;&#160;approve(spender: address, value: uint256): bool</text>
<text text-anchor="start" x="8" y="-1040.5" font-family="Times,serif" font-size="14.00"> &#160;&#160;&#160;&#160;transferFrom(from: address, to: address, value: uint256): bool</text>
<text text-anchor="start" x="8" y="-1023.7" font-family="Times,serif" font-size="14.00">Public:</text>
<text text-anchor="start" x="8" y="-1006.9" font-family="Times,serif" font-size="14.00"> &#160;&#160;&#160;&lt;&lt;event&gt;&gt; Transfer(from: address, to: address, value: uint256)</text>
<text text-anchor="start" x="8" y="-990.1" font-family="Times,serif" font-size="14.00"> &#160;&#160;&#160;&lt;&lt;event&gt;&gt; Approval(owner: address, spender: address, value: uint256)</text>
</g>
<!-- 1 -->
<g id="node2" class="node">
<title>1</title>
<polygon fill="#f2f2f2" stroke="black" points="196.31,-811.3 196.31,-944.9 325.06,-944.9 325.06,-811.3 196.31,-811.3"/>
<text text-anchor="middle" x="260.68" y="-928.3" font-family="Times,serif" font-size="14.00">&lt;&lt;Interface&gt;&gt;</text>
<text text-anchor="middle" x="260.68" y="-911.5" font-family="Times,serif" font-size="14.00">IERC20Metadata</text>
<text text-anchor="middle" x="260.68" y="-894.7" font-family="Times,serif" font-size="14.00">FITsToken.sol</text>
<polyline fill="none" stroke="black" points="196.31,-886.5 325.06,-886.5 "/>
<text text-anchor="start" x="204.31" y="-869.9" font-family="Times,serif" font-size="14.00">External:</text>
<text text-anchor="start" x="204.31" y="-853.1" font-family="Times,serif" font-size="14.00"> &#160;&#160;&#160;&#160;name(): string</text>
<text text-anchor="start" x="204.31" y="-836.3" font-family="Times,serif" font-size="14.00"> &#160;&#160;&#160;&#160;symbol(): string</text>
<text text-anchor="start" x="204.31" y="-819.5" font-family="Times,serif" font-size="14.00"> &#160;&#160;&#160;&#160;decimals(): uint8</text>
</g>
<!-- 1&#45;&gt;0 -->
<g id="edge1" class="edge">
<title>1&#45;&gt;0</title>
<path fill="none" stroke="black" stroke-dasharray="5,2" d="M246.82,-945.1C246.34,-947.37 245.86,-949.66 245.37,-951.98"/>
<polygon fill="none" stroke="black" points="235.06,-950.02 239.16,-981.54 255.61,-954.34 235.06,-950.02"/>
</g>
<!-- 2 -->
<g id="node3" class="node">
<title>2</title>
<polygon fill="#f2f2f2" stroke="black" points="551.5,-811.3 551.5,-944.9 763.86,-944.9 763.86,-811.3 551.5,-811.3"/>
<text text-anchor="middle" x="657.68" y="-928.3" font-family="Times,serif" font-size="14.00">&lt;&lt;Abstract&gt;&gt;</text>
<text text-anchor="middle" x="657.68" y="-911.5" font-family="Times,serif" font-size="14.00">Context</text>
<text text-anchor="middle" x="657.68" y="-894.7" font-family="Times,serif" font-size="14.00">FITsToken.sol</text>
<polyline fill="none" stroke="black" points="551.5,-886.5 763.86,-886.5 "/>
<text text-anchor="start" x="559.5" y="-869.9" font-family="Times,serif" font-size="14.00">Internal:</text>
<text text-anchor="start" x="559.5" y="-853.1" font-family="Times,serif" font-size="14.00"> &#160;&#160;&#160;_msgSender(): address</text>
<text text-anchor="start" x="559.5" y="-836.3" font-family="Times,serif" font-size="14.00"> &#160;&#160;&#160;_msgData(): bytes</text>
<text text-anchor="start" x="559.5" y="-819.5" font-family="Times,serif" font-size="14.00"> &#160;&#160;&#160;_contextSuffixLength(): uint256</text>
</g>
<!-- 3 -->
<g id="node4" class="node">
<title>3</title>
<polygon fill="#f2f2f2" stroke="black" points="342.66,-848.9 342.66,-907.3 440.71,-907.3 440.71,-848.9 342.66,-848.9"/>
<text text-anchor="middle" x="391.68" y="-890.7" font-family="Times,serif" font-size="14.00">&lt;&lt;Interface&gt;&gt;</text>
<text text-anchor="middle" x="391.68" y="-873.9" font-family="Times,serif" font-size="14.00">IERC20Errors</text>
<text text-anchor="middle" x="391.68" y="-857.1" font-family="Times,serif" font-size="14.00">FITsToken.sol</text>
</g>
<!-- 4 -->
<g id="node5" class="node">
<title>4</title>
<polygon fill="#f2f2f2" stroke="black" points="765.74,-92.5 765.74,-150.9 869.62,-150.9 869.62,-92.5 765.74,-92.5"/>
<text text-anchor="middle" x="817.68" y="-134.3" font-family="Times,serif" font-size="14.00">&lt;&lt;Interface&gt;&gt;</text>
<text text-anchor="middle" x="817.68" y="-117.5" font-family="Times,serif" font-size="14.00">IERC721Errors</text>
<text text-anchor="middle" x="817.68" y="-100.7" font-family="Times,serif" font-size="14.00">FITsToken.sol</text>
</g>
<!-- 5 -->
<g id="node6" class="node">
<title>5</title>
<polygon fill="#f2f2f2" stroke="black" points="887.24,-92.5 887.24,-150.9 998.12,-150.9 998.12,-92.5 887.24,-92.5"/>
<text text-anchor="middle" x="942.68" y="-134.3" font-family="Times,serif" font-size="14.00">&lt;&lt;Interface&gt;&gt;</text>
<text text-anchor="middle" x="942.68" y="-117.5" font-family="Times,serif" font-size="14.00">IERC1155Errors</text>
<text text-anchor="middle" x="942.68" y="-100.7" font-family="Times,serif" font-size="14.00">FITsToken.sol</text>
</g>
<!-- 6 -->
<g id="node7" class="node">
<title>6</title>
<polygon fill="#f2f2f2" stroke="black" points="30.68,-279.9 30.68,-774.3 490.68,-774.3 490.68,-279.9 30.68,-279.9"/>
<text text-anchor="middle" x="260.68" y="-757.7" font-family="Times,serif" font-size="14.00">&lt;&lt;Abstract&gt;&gt;</text>
<text text-anchor="middle" x="260.68" y="-740.9" font-family="Times,serif" font-size="14.00">ERC20</text>
<text text-anchor="middle" x="260.68" y="-724.1" font-family="Times,serif" font-size="14.00">FITsToken.sol</text>
<polyline fill="none" stroke="black" points="30.68,-715.9 490.68,-715.9 "/>
<text text-anchor="start" x="38.68" y="-699.3" font-family="Times,serif" font-size="14.00">Private:</text>
<text text-anchor="start" x="38.68" y="-682.5" font-family="Times,serif" font-size="14.00"> &#160;&#160;_balances: mapping(address=&gt;uint256)</text>
<text text-anchor="start" x="38.68" y="-665.7" font-family="Times,serif" font-size="14.00"> &#160;&#160;_allowances: mapping(address=&gt;mapping(address=&gt;uint256))</text>
<text text-anchor="start" x="38.68" y="-648.9" font-family="Times,serif" font-size="14.00"> &#160;&#160;_totalSupply: uint256</text>
<text text-anchor="start" x="38.68" y="-632.1" font-family="Times,serif" font-size="14.00"> &#160;&#160;_name: string</text>
<text text-anchor="start" x="38.68" y="-615.3" font-family="Times,serif" font-size="14.00"> &#160;&#160;_symbol: string</text>
<polyline fill="none" stroke="black" points="30.68,-607.1 490.68,-607.1 "/>
<text text-anchor="start" x="38.68" y="-590.5" font-family="Times,serif" font-size="14.00">Internal:</text>
<text text-anchor="start" x="38.68" y="-573.7" font-family="Times,serif" font-size="14.00"> &#160;&#160;&#160;_transfer(from: address, to: address, value: uint256)</text>
<text text-anchor="start" x="38.68" y="-556.9" font-family="Times,serif" font-size="14.00"> &#160;&#160;&#160;_update(from: address, to: address, value: uint256)</text>
<text text-anchor="start" x="38.68" y="-540.1" font-family="Times,serif" font-size="14.00"> &#160;&#160;&#160;_mint(account: address, value: uint256)</text>
<text text-anchor="start" x="38.68" y="-523.3" font-family="Times,serif" font-size="14.00"> &#160;&#160;&#160;_burn(account: address, value: uint256)</text>
<text text-anchor="start" x="38.68" y="-506.5" font-family="Times,serif" font-size="14.00"> &#160;&#160;&#160;_approve(owner: address, spender: address, value: uint256)</text>
<text text-anchor="start" x="38.68" y="-489.7" font-family="Times,serif" font-size="14.00"> &#160;&#160;&#160;_approve(owner: address, spender: address, value: uint256, emitEvent: bool)</text>
<text text-anchor="start" x="38.68" y="-472.9" font-family="Times,serif" font-size="14.00"> &#160;&#160;&#160;_spendAllowance(owner: address, spender: address, value: uint256)</text>
<text text-anchor="start" x="38.68" y="-456.1" font-family="Times,serif" font-size="14.00">Public:</text>
<text text-anchor="start" x="38.68" y="-439.3" font-family="Times,serif" font-size="14.00"> &#160;&#160;&#160;constructor(name_: string, symbol_: string)</text>
<text text-anchor="start" x="38.68" y="-422.5" font-family="Times,serif" font-size="14.00"> &#160;&#160;&#160;name(): string</text>
<text text-anchor="start" x="38.68" y="-405.7" font-family="Times,serif" font-size="14.00"> &#160;&#160;&#160;symbol(): string</text>
<text text-anchor="start" x="38.68" y="-388.9" font-family="Times,serif" font-size="14.00"> &#160;&#160;&#160;decimals(): uint8</text>
<text text-anchor="start" x="38.68" y="-372.1" font-family="Times,serif" font-size="14.00"> &#160;&#160;&#160;totalSupply(): uint256</text>
<text text-anchor="start" x="38.68" y="-355.3" font-family="Times,serif" font-size="14.00"> &#160;&#160;&#160;balanceOf(account: address): uint256</text>
<text text-anchor="start" x="38.68" y="-338.5" font-family="Times,serif" font-size="14.00"> &#160;&#160;&#160;transfer(to: address, value: uint256): bool</text>
<text text-anchor="start" x="38.68" y="-321.7" font-family="Times,serif" font-size="14.00"> &#160;&#160;&#160;allowance(owner: address, spender: address): uint256</text>
<text text-anchor="start" x="38.68" y="-304.9" font-family="Times,serif" font-size="14.00"> &#160;&#160;&#160;approve(spender: address, value: uint256): bool</text>
<text text-anchor="start" x="38.68" y="-288.1" font-family="Times,serif" font-size="14.00"> &#160;&#160;&#160;transferFrom(from: address, to: address, value: uint256): bool</text>
</g>
<!-- 6&#45;&gt;0 -->
<g id="edge3" class="edge">
<title>6&#45;&gt;0</title>
<path fill="none" stroke="black" stroke-dasharray="5,2" d="M193.2,-774.46C191.06,-786.7 189.2,-798.86 187.68,-810.8 180.14,-870.15 182.45,-885.81 187.68,-945.4 187.87,-947.52 188.07,-949.66 188.28,-951.8"/>
<polygon fill="none" stroke="black" points="177.87,-953.15 191.93,-981.66 198.71,-950.61 177.87,-953.15"/>
</g>
<!-- 6&#45;&gt;1 -->
<g id="edge4" class="edge">
<title>6&#45;&gt;1</title>
<path fill="none" stroke="black" stroke-dasharray="5,2" d="M260.68,-774.75C260.68,-776.87 260.68,-778.97 260.68,-781.05"/>
<polygon fill="none" stroke="black" points="250.18,-781.22 260.68,-811.22 271.18,-781.22 250.18,-781.22"/>
</g>
<!-- 6&#45;&gt;2 -->
<g id="edge2" class="edge">
<title>6&#45;&gt;2</title>
<path fill="none" stroke="black" d="M490.69,-767.32C493.69,-769.84 496.69,-772.34 499.68,-774.8 508.2,-781.8 517.21,-788.73 526.45,-795.49"/>
<polygon fill="none" stroke="black" points="520.64,-804.24 551.22,-812.91 532.72,-787.06 520.64,-804.24"/>
</g>
<!-- 6&#45;&gt;3 -->
<g id="edge5" class="edge">
<title>6&#45;&gt;3</title>
<path fill="none" stroke="black" stroke-dasharray="5,2" d="M353.26,-774.75C359.48,-791.3 365.3,-806.81 370.44,-820.5"/>
<polygon fill="none" stroke="black" points="360.68,-824.38 381.05,-848.78 380.34,-817 360.68,-824.38"/>
</g>
<!-- 7 -->
<g id="node8" class="node">
<title>7</title>
<polygon fill="#f2f2f2" stroke="black" points="508.22,-389.1 508.22,-665.1 993.15,-665.1 993.15,-389.1 508.22,-389.1"/>
<text text-anchor="middle" x="750.68" y="-648.5" font-family="Times,serif" font-size="14.00">&lt;&lt;Abstract&gt;&gt;</text>
<text text-anchor="middle" x="750.68" y="-631.7" font-family="Times,serif" font-size="14.00">Ownable</text>
<text text-anchor="middle" x="750.68" y="-614.9" font-family="Times,serif" font-size="14.00">FITsToken.sol</text>
<polyline fill="none" stroke="black" points="508.22,-606.7 993.15,-606.7 "/>
<text text-anchor="start" x="516.22" y="-590.1" font-family="Times,serif" font-size="14.00">Private:</text>
<text text-anchor="start" x="516.22" y="-573.3" font-family="Times,serif" font-size="14.00"> &#160;&#160;_owner: address</text>
<polyline fill="none" stroke="black" points="508.22,-565.1 993.15,-565.1 "/>
<text text-anchor="start" x="516.22" y="-548.5" font-family="Times,serif" font-size="14.00">Internal:</text>
<text text-anchor="start" x="516.22" y="-531.7" font-family="Times,serif" font-size="14.00"> &#160;&#160;&#160;_checkOwner()</text>
<text text-anchor="start" x="516.22" y="-514.9" font-family="Times,serif" font-size="14.00"> &#160;&#160;&#160;_transferOwnership(newOwner: address)</text>
<text text-anchor="start" x="516.22" y="-498.1" font-family="Times,serif" font-size="14.00">Public:</text>
<text text-anchor="start" x="516.22" y="-481.3" font-family="Times,serif" font-size="14.00"> &#160;&#160;&#160;&lt;&lt;event&gt;&gt; OwnershipTransferred(previousOwner: address, newOwner: address)</text>
<text text-anchor="start" x="516.22" y="-464.5" font-family="Times,serif" font-size="14.00"> &#160;&#160;&#160;&lt;&lt;modifier&gt;&gt; onlyOwner()</text>
<text text-anchor="start" x="516.22" y="-447.7" font-family="Times,serif" font-size="14.00"> &#160;&#160;&#160;constructor(initialOwner: address)</text>
<text text-anchor="start" x="516.22" y="-430.9" font-family="Times,serif" font-size="14.00"> &#160;&#160;&#160;owner(): address</text>
<text text-anchor="start" x="516.22" y="-414.1" font-family="Times,serif" font-size="14.00"> &#160;&#160;&#160;renounceOwnership() &lt;&lt;onlyOwner&gt;&gt;</text>
<text text-anchor="start" x="516.22" y="-397.3" font-family="Times,serif" font-size="14.00"> &#160;&#160;&#160;transferOwnership(newOwner: address) &lt;&lt;onlyOwner&gt;&gt;</text>
</g>
<!-- 7&#45;&gt;2 -->
<g id="edge6" class="edge">
<title>7&#45;&gt;2</title>
<path fill="none" stroke="black" d="M714.13,-665.28C703.7,-704.4 692.58,-746.14 682.99,-782.14"/>
<polygon fill="none" stroke="black" points="672.83,-779.46 675.26,-811.15 693.13,-784.87 672.83,-779.46"/>
</g>
<!-- 8 -->
<g id="node9" class="node">
<title>8</title>
<polygon fill="#f2f2f2" stroke="black" points="263.97,-0.5 263.97,-242.9 747.39,-242.9 747.39,-0.5 263.97,-0.5"/>
<text text-anchor="middle" x="505.68" y="-226.3" font-family="Times,serif" font-size="14.00">FITs</text>
<text text-anchor="middle" x="505.68" y="-209.5" font-family="Times,serif" font-size="14.00">FITsToken.sol</text>
<polyline fill="none" stroke="black" points="263.97,-201.3 747.39,-201.3 "/>
<text text-anchor="start" x="271.97" y="-184.7" font-family="Times,serif" font-size="14.00">Private:</text>
<text text-anchor="start" x="271.97" y="-167.9" font-family="Times,serif" font-size="14.00"> &#160;&#160;INITIAL_SUPPLY: uint256</text>
<text text-anchor="start" x="271.97" y="-151.1" font-family="Times,serif" font-size="14.00">Public:</text>
<text text-anchor="start" x="271.97" y="-134.3" font-family="Times,serif" font-size="14.00"> &#160;&#160;rewardContract: address</text>
<polyline fill="none" stroke="black" points="263.97,-126.1 747.39,-126.1 "/>
<text text-anchor="start" x="271.97" y="-109.5" font-family="Times,serif" font-size="14.00">External:</text>
<text text-anchor="start" x="271.97" y="-92.7" font-family="Times,serif" font-size="14.00"> &#160;&#160;&#160;setRewardContract(_rewardContract: address) &lt;&lt;onlyOwner&gt;&gt;</text>
<text text-anchor="start" x="271.97" y="-75.9" font-family="Times,serif" font-size="14.00"> &#160;&#160;&#160;mint(to: address, amount: uint256) &lt;&lt;onlyRewardContract&gt;&gt;</text>
<text text-anchor="start" x="271.97" y="-59.1" font-family="Times,serif" font-size="14.00">Public:</text>
<text text-anchor="start" x="271.97" y="-42.3" font-family="Times,serif" font-size="14.00"> &#160;&#160;&#160;&lt;&lt;event&gt;&gt; SetRewardContract(previousAddress: address, newAddress: address)</text>
<text text-anchor="start" x="271.97" y="-25.5" font-family="Times,serif" font-size="14.00"> &#160;&#160;&#160;&lt;&lt;modifier&gt;&gt; onlyRewardContract()</text>
<text text-anchor="start" x="271.97" y="-8.7" font-family="Times,serif" font-size="14.00"> &#160;&#160;&#160;constructor()</text>
</g>
<!-- 8&#45;&gt;6 -->
<g id="edge7" class="edge">
<title>8&#45;&gt;6</title>
<path fill="none" stroke="black" d="M432.67,-242.91C430.48,-246.52 428.26,-250.17 426.02,-253.86"/>
<polygon fill="none" stroke="black" points="417,-248.49 410.4,-279.59 434.95,-259.4 417,-248.49"/>
</g>
<!-- 8&#45;&gt;7 -->
<g id="edge8" class="edge">
<title>8&#45;&gt;7</title>
<path fill="none" stroke="black" d="M578.69,-242.91C601.65,-280.72 627.4,-323.12 651.84,-363.36"/>
<polygon fill="none" stroke="black" points="642.92,-368.9 667.47,-389.09 660.87,-358 642.92,-368.9"/>
</g>
</g>
</svg>
